<svg id="Layer_1" data-name="Layer 1" xmlns="http://www.w3.org/2000/svg" viewBox="0 0 1617.94 1545.39"><defs><style>.cls-1{fill:#8ac9c2;}.cls-2{fill:#70c0b7;}</style></defs><path class="cls-1" d="M951.84,619.92C929.33,638.25,919,636.18,914.9,634.5c-13.27-5.41-19.17-29.72-14.44-61.39-18.39,26.21-39.42,39.76-52.76,34.54-4.16-1.63-13-7.24-16.72-36-7.27-57,18.49-106.35,33.28-133.86C926.56,321.94,949.6,288.6,949.6,288.6c38.1-58.72,86.32-123.56,142.73-199.54l3.41-4.59c-.24,1.89-.47,3.79-.7,5.67-11.49,93.93-21.24,174.15-34.1,243,0,0-6.28,40-41,166.89C1011.74,530.11,996.41,583.62,951.84,619.92Z"/><path class="cls-1" d="M1009.51,744.84c-28.87-3-34.69-11.72-36.43-15.83-5.55-13.21,7.49-34.57,33.24-53.6-31.54,5.51-56,.21-61.73-12.92-1.78-4.09-4.1-14.34,13.67-37.29,35.2-45.45,88.31-62.08,118.23-71.06,126-37.78,165.84-45,165.84-45,68.46-14.54,148.42-26.25,242-40l5.66-.83-4.51,3.51c-74.57,58.25-138.22,108-196,147.58,0,0-32.77,23.85-147,89C1115.38,723.75,1066.69,750.71,1009.51,744.84Z"/><path class="cls-1" d="M967.11,883.45c-18.37-22.47-16.32-32.78-14.64-36.91,5.38-13.28,29.69-19.21,61.37-14.53C987.6,813.66,974,792.65,979.22,779.3c1.62-4.16,7.21-13,36-16.77,57-7.37,106.38,18.32,133.91,33.07,115.92,62.13,149.29,85.12,149.29,85.12,58.78,38,123.69,86.13,199.76,142.43l4.59,3.4-5.67-.69c-93.95-11.35-174.18-21-243-33.73,0,0-40-6.22-166.95-40.72C1057,943.22,1003.48,928,967.11,883.45Z"/><path class="cls-1" d="M830.62,947.3c2.9-28.87,11.64-34.71,15.75-36.45C859.56,905.27,881,918.26,900,944c-5.58-31.53-.33-56,12.79-61.75,4.09-1.8,14.33-4.13,37.31,13.59,45.52,35.1,62.27,88.18,71.31,118.07,38,125.89,45.39,165.75,45.39,165.75,14.69,68.43,26.57,148.37,40.55,242l.84,5.65-3.52-4.49c-58.41-74.46-108.34-138-148-195.68,0,0-23.92-32.71-89.27-146.84C851.92,1053.13,824.86,1004.5,830.62,947.3Z"/><path class="cls-1" d="M694.31,900.21c22.63-18.17,32.92-16,37-14.32,13.23,5.49,19,29.85,14,61.49,18.57-26.08,39.7-39.49,53-34.17,4.14,1.65,13,7.32,16.47,36.13,6.88,57.08-19.23,106.23-34.21,133.63-63.1,115.39-86.37,148.57-86.37,148.57-38.5,58.45-87.18,123-144.11,198.55-1.15,1.51-2.29,3-3.44,4.56q.38-2.84.73-5.66c12.15-93.85,22.45-174,35.79-242.72,0,0,6.56-40,42.12-166.6C633.79,989.6,649.49,936.2,694.31,900.21Z"/><path class="cls-1" d="M689,616.77c23,17.75,33.21,15.42,37.3,13.63,13.12-5.74,18.4-30.2,12.86-61.74,19.06,25.73,40.43,38.75,53.63,33.18,4.11-1.73,12.85-7.56,15.79-36.44,5.82-57.19-21.2-105.85-36.69-133-65.24-114.19-89.12-146.92-89.12-146.92C643.22,227.78,593.35,164.19,535,89.67l-3.52-4.49.84,5.65c13.89,93.6,25.69,173.55,40.3,242,0,0,7.3,39.86,45.22,165.79C626.86,528.53,643.55,581.62,689,616.77Z"/><path class="cls-1" d="M624.23,746.43c28.8-3.63,34.41-12.51,36-16.66,5.25-13.33-8.28-34.38-34.46-52.82,31.66,4.78,56-1.08,61.41-14.34,1.69-4.13,3.77-14.43-14.52-37-36.24-44.62-89.72-60-119.83-68.32-126.8-34.88-166.83-41.22-166.83-41.22-68.78-13-149-22.83-242.9-34.47l-5.67-.69,4.58,3.4c75.89,56.53,140.67,104.85,199.33,143,0,0,33.3,23.09,149,85.56C517.9,727.79,567.2,753.62,624.23,746.43Z"/><path class="cls-1" d="M679.12,886.76c17.8-22.92,15.5-33.17,13.72-37.27-5.72-13.13-30.17-18.46-61.72-13,25.77-19,38.83-40.34,33.29-53.56-1.72-4.11-7.53-12.86-36.4-15.86-57.18-5.94-105.9,21-133,36.41-114.33,65-147.11,88.81-147.11,88.81C290,931.77,226.34,981.5,151.7,1039.68l-4.5,3.51,5.65-.83c93.64-13.69,173.61-25.32,242.09-39.79,0,0,39.88-7.22,165.89-44.87C590.75,948.76,643.88,932.18,679.12,886.76Z"/><path class="cls-2" d="M890.92,580.24c-14.1,25.37-24.43,27.28-28.89,27.25-14.33-.1-28.83-20.49-36.19-51.65C818.49,587,804,607.39,789.66,607.49c-4.46,0-14.79-1.88-28.89-27.25C732.85,530,738.47,474.62,742,443.59c14.87-130.67,23.89-170.18,23.89-170.18,13.59-68.66,34.31-146.78,58.49-238.26l1.47-5.52c.48,1.84,1,3.68,1.45,5.52,24.19,91.48,44.9,169.6,58.5,238.26,0,0,9,39.51,23.89,170.18C913.22,474.62,918.84,530,890.92,580.24Z"/><path class="cls-2" d="M990.83,674.84c-27.92,8-36.57,2-39.7-1.18-10.06-10.21-5.88-34.88,11-62.11-27.24,16.82-51.92,21-62.11,10.91-3.18-3.14-9.13-11.79-1.14-39.7,15.82-55.26,59-90.42,83.41-109.86,103-81.82,137.28-103.36,137.28-103.36,58.18-38.91,128.09-79.46,209.91-127l4.94-2.87q-1.46,2.47-2.88,4.94c-47.63,81.77-88.26,151.63-127.23,209.77,0,0-21.57,34.3-103.51,137.17C1081.31,616,1046.11,659.08,990.83,674.84Z"/><path class="cls-2" d="M1002.89,819.29c-25.39-14-27.31-24.38-27.29-28.85.07-14.32,20.44-28.85,51.6-36.26-31.18-7.31-51.59-21.78-51.71-36.1,0-4.47,1.86-14.8,27.21-28.93,50.2-28,105.58-22.46,136.62-19,130.69,14.67,170.21,23.63,170.21,23.63,68.69,13.49,146.83,34.09,238.35,58.14l5.53,1.45q-2.78.72-5.52,1.47c-91.45,24.32-169.53,45.15-238.18,58.85,0,0-39.49,9.08-170.14,24.15C1108.55,841.43,1053.19,847.14,1002.89,819.29Z"/><path class="cls-2" d="M899.84,929.23c-8-27.89-2.07-36.55,1.1-39.69,10.18-10.08,34.86-6,62.13,10.83-16.88-27.2-21.09-51.87-11-62.08,3.13-3.19,11.77-9.16,39.69-1.23,55.3,15.71,90.55,58.78,110,83.18,82,102.79,103.65,137.07,103.65,137.07,39,58.1,79.73,127.92,127.45,209.64q1.42,2.46,2.88,4.93l-4.94-2.87c-81.87-47.46-151.82-87.93-210-126.78,0,0-34.35-21.5-137.39-103.23C958.9,1019.6,915.72,984.48,899.84,929.23Z"/><path class="cls-2" d="M755.79,936.09C770.06,910.81,780.41,909,784.87,909c14.33.19,28.69,20.69,35.83,51.9,7.57-31.11,22.21-51.4,36.54-51.4,4.46,0,14.78,2,28.7,27.45,27.57,50.44,21.57,105.77,17.82,136.78-15.77,130.56-25.07,170-25.07,170-14.06,68.57-35.33,146.54-60.14,237.86l-1.5,5.51c-.47-1.85-.95-3.7-1.42-5.53-23.55-91.66-43.73-169.91-56.84-238.67,0,0-8.75-39.56-22.71-170.33C732.76,1041.55,727.53,986.14,755.79,936.09Z"/><path class="cls-2" d="M645.72,674.84c27.91,8,36.56,2,39.69-1.18,10.06-10.21,5.88-34.88-11-62.11,27.25,16.82,51.92,21,62.12,10.91,3.17-3.14,9.12-11.79,1.13-39.7-15.82-55.26-59-90.42-83.41-109.86C551.33,391.08,517,369.54,517,369.54c-58.18-38.91-128.09-79.46-209.91-127l-4.93-2.87L305,244.6c47.64,81.77,88.26,151.63,127.23,209.77,0,0,21.57,34.3,103.51,137.17C555.23,616,590.43,659.08,645.72,674.84Z"/><path class="cls-2" d="M633.65,819.29c25.39-14,27.32-24.38,27.29-28.85-.07-14.32-20.44-28.85-51.59-36.26,31.17-7.31,51.58-21.78,51.7-36.1,0-4.47-1.85-14.8-27.2-28.93-50.21-28-105.59-22.46-136.63-19C366.53,684.84,327,693.8,327,693.8c-68.68,13.49-146.83,34.09-238.35,58.14l-5.52,1.45q2.76.72,5.51,1.47c91.46,24.32,169.54,45.15,238.18,58.85,0,0,39.49,9.08,170.14,24.15C528,841.43,583.36,847.14,633.65,819.29Z"/><path class="cls-2" d="M736.7,929.23c8-27.89,2.07-36.55-1.1-39.69-10.18-10.08-34.86-6-62.12,10.83,16.87-27.2,21.08-51.87,11-62.08-3.13-3.19-11.77-9.16-39.69-1.23-55.3,15.71-90.55,58.78-110,83.18-82,102.79-103.65,137.07-103.65,137.07-39,58.1-79.73,127.92-127.45,209.64l-2.87,4.93,4.94-2.87c81.86-47.46,151.81-87.93,210-126.78,0,0,34.35-21.5,137.39-103.23C677.64,1019.6,720.82,984.48,736.7,929.23Z"/></svg>